<?xml version="1.0" encoding="UTF-8"?>
<svg id="SVGDoc" width="21" height="21" xmlns="http://www.w3.org/2000/svg" version="1.1" xmlns:xlink="http://www.w3.org/1999/xlink" xmlns:avocode="https://avocode.com/" viewBox="0 0 21 21"><defs></defs><desc>Generated with Avocode.</desc><g><g><title>01</title><path d="M20.99815,10.49926c0,5.79836 -4.69963,10.49828 -10.49847,10.49828c-5.79803,0 -10.49835,-4.69992 -10.49835,-10.49828c0,-5.79836 4.70032,-10.49869 10.49835,-10.49869c5.79884,0 10.49847,4.70034 10.49847,10.49869zM13.9938,10.49926c0.00137,-0.17906 -0.06706,-0.35977 -0.20508,-0.49687l-4.53918,-4.53956c-0.2726,-0.27336 -0.71617,-0.27336 -0.98957,0c-0.2726,0.27295 -0.2726,0.71623 0,0.98917l4.04686,4.04726l-4.04686,4.04601c-0.2726,0.27295 -0.2726,0.71623 0,0.99c0.2734,0.27295 0.71697,0.27295 0.98957,0l4.53918,-4.53873c0.13802,-0.13793 0.20508,-0.31698 0.20508,-0.49729z" fill="#000000" fill-opacity="1"></path><path d="M20.99815,10.49926c0,5.79836 -4.69963,10.49828 -10.49847,10.49828c-5.79803,0 -10.49835,-4.69992 -10.49835,-10.49828c0,-5.79836 4.70032,-10.49869 10.49835,-10.49869c5.79884,0 10.49847,4.70034 10.49847,10.49869zM13.9938,10.49926c0.00137,-0.17906 -0.06706,-0.35977 -0.20508,-0.49687l-4.53918,-4.53956c-0.2726,-0.27336 -0.71617,-0.27336 -0.98957,0c-0.2726,0.27295 -0.2726,0.71623 0,0.98917l4.04686,4.04726l-4.04686,4.04601c-0.2726,0.27295 -0.2726,0.71623 0,0.99c0.2734,0.27295 0.71697,0.27295 0.98957,0l4.53918,-4.53873c0.13802,-0.13793 0.20508,-0.31698 0.20508,-0.49729z" fill="#c7b299" fill-opacity="1"></path></g></g></svg>